M48
INCH,TZ
T1C0.0157
T2C0.0197
T3C0.0300
T4C0.0394
T5C0.0984
T6C0.1260
%
G90
G05
T1
X31000Y-27000
X31000Y-31000
X31000Y-33000
X31000Y-35000
X31000Y-37000
X31000Y-39000
X31000Y-41000
X31000Y-43000
X31000Y-45000
X31000Y-47000
X31000Y-49000
X31000Y-51000
X32000Y-16000
X32000Y-19000
X32000Y-22000
X32300Y-34650
X33000Y-25000
X33000Y-27000
X33000Y-29000
X33000Y-37000
X33000Y-39000
X33000Y-45000
X33000Y-47000
X33000Y-49000
X33000Y-51000
X35000Y-20000
X35000Y-25000
X35000Y-27000
X35000Y-29000
X35000Y-37000
X35000Y-39000
X35000Y-45000
X35000Y-47000
X35000Y-49000
X35000Y-51000
X35400Y-21800
X35600Y-30800
X36581Y-22625
X36600Y-31700
X37000Y-16000
X37000Y-20000
X37000Y-27000
X37000Y-37000
X37000Y-39000
X37000Y-45000
X37000Y-47000
X37000Y-49000
X37000Y-51000
X37000Y-53000
X37500Y-32000
X37500Y-32500
X38500Y-32000
X38500Y-32500
X39000Y-20000
X39000Y-22000
X39000Y-24000
X39000Y-37000
X39000Y-39000
X39000Y-41000
X39000Y-45000
X39000Y-47000
X39000Y-49000
X39000Y-51000
X39000Y-53000
X39500Y-32000
X39500Y-32500
X39600Y-27550
X39900Y-35900
X40850Y-27050
X40900Y-35600
X41000Y-22000
X41000Y-24000
X41000Y-37000
X41000Y-39000
X41000Y-41000
X41000Y-45000
X41000Y-47000
X41000Y-49000
X41000Y-51000
X41000Y-53000
X41050Y-31550
X41400Y-34300
X41500Y-32000
X41600Y-28850
X41950Y-33900
X42000Y-25400
X42000Y-26400
X42550Y-31650
X42600Y-26400
X43000Y-33000
X43000Y-45000
X43000Y-47000
X43000Y-49000
X43000Y-51000
X43000Y-53000
X43173Y-29277
X44000Y-12000
X44000Y-14000
X44000Y-15500
X45000Y-47000
X45000Y-49000
X45000Y-51000
X45000Y-53000
X45198Y-33998
X45850Y-32050
X46000Y-12000
X46000Y-14000
X46000Y-15500
X46398Y-31098
X47000Y-47000
X47000Y-49000
X47000Y-51000
X47000Y-53000
X48000Y-12000
X48000Y-14000
X48000Y-15500
X49000Y-47000
X49000Y-49000
X49000Y-51000
X49000Y-53000
X49377Y-33623
X49800Y-32785
X50000Y-12000
X50000Y-14000
X50000Y-15500
X50000Y-28900
X50000Y-42000
X50000Y-42500
X50249Y-40400
X50500Y-42500
X50550Y-36850
X51000Y-28500
X51000Y-47000
X51000Y-49000
X51000Y-51000
X51000Y-53000
X51500Y-28500
X51500Y-31015
X51600Y-41200
X52000Y-12000
X52000Y-14000
X52000Y-15500
X52000Y-28000
X52000Y-28500
X52200Y-35800
X52200Y-40450
X52500Y-28000
X52500Y-28500
X52600Y-41400
X52648Y-36102
X52950Y-37000
X53000Y-28000
X53000Y-28500
X53000Y-42000
X53000Y-43200
X53000Y-53000
X53200Y-38000
X53500Y-28000
X53500Y-28500
X53600Y-42000
X53650Y-43900
X54000Y-12000
X54000Y-14000
X54000Y-15500
X54000Y-28000
X54000Y-28500
X54500Y-43000
X54500Y-45000
X54700Y-32800
X55000Y-35950
X55000Y-53000
X55150Y-46000
X55500Y-43500
X56000Y-12000
X56000Y-14000
X56000Y-44500
X56500Y-47500
X56500Y-48500
X56750Y-43150
X56857Y-37100
X56950Y-31585
X57000Y-34400
X57000Y-53000
X57050Y-35350
X57150Y-36600
X57250Y-43250
X57300Y-32150
X57300Y-38350
X57400Y-49350
X57500Y-16500
X57500Y-48000
X57600Y-37800
X57900Y-50350
X58000Y-12000
X58000Y-14000
X58000Y-41000
X58000Y-44000
X58150Y-53850
X58200Y-32800
X58350Y-30950
X58400Y-33800
X58418Y-31914
X58500Y-40000
X58500Y-41500
X58500Y-44500
X58500Y-47500
X58650Y-48850
X59000Y-36550
X59000Y-41000
X59000Y-45000
X59000Y-48000
X59100Y-35550
X59200Y-30600
X59350Y-50250
X59400Y-26400
X59500Y-43200
X59500Y-48500
X59800Y-31600
X60000Y-12000
X60000Y-14000
X60000Y-25800
X60000Y-26400
X60000Y-40000
X60200Y-28000
X60200Y-31350
X60200Y-33300
X60348Y-38152
X60365Y-53855
X60951Y-27925
X61000Y-16500
X61000Y-19000
X61000Y-21000
X61000Y-22500
X61000Y-24000
X61050Y-31850
X61050Y-33900
X61050Y-41700
X61400Y-38400
X61500Y-41500
X61600Y-29150
X61800Y-37400
X62000Y-12000
X62000Y-14000
X62200Y-48800
X62200Y-53850
X62300Y-40750
X62500Y-37100
X62751Y-27950
X63500Y-40000
X63600Y-40950
X64000Y-12000
X64000Y-14000
X64000Y-16000
X64000Y-19000
X64000Y-21000
X64005Y-37502
X64500Y-39850
X64650Y-38400
X65000Y-40800
X65465Y-38150
X65500Y-42500
X65500Y-43500
X65699Y-53825
X65700Y-52450
X66000Y-12000
X66000Y-14000
X66000Y-16000
X66000Y-43000
X66000Y-44000
X66000Y-45000
X66000Y-46000
X66000Y-47000
X66100Y-29800
X66150Y-30650
X66250Y-28250
X67000Y-27000
X67000Y-43000
X67000Y-44000
X67000Y-45000
X67000Y-46000
X67000Y-47000
X67000Y-48000
X67300Y-40400
X67800Y-41400
X68000Y-12000
X68000Y-14000
X68000Y-16000
X69900Y-38300
X70000Y-12000
X70000Y-14000
X70000Y-16000
X70000Y-19000
X70050Y-30700
X70174Y-44400
X70400Y-33800
X71000Y-23000
X71000Y-47500
X71250Y-50700
X71250Y-51150
X71250Y-51650
X71250Y-52300
X71300Y-52900
X71300Y-54400
X72000Y-12000
X72000Y-14000
X72000Y-16000
X72000Y-54400
X72100Y-51700
X72100Y-52300
X72100Y-52900
X72100Y-53600
X72500Y-29600
X72500Y-39000
X72500Y-44500
X72500Y-46000
X72500Y-47500
X72500Y-49000
X72500Y-50000
X72700Y-30650
X72800Y-26200
X72800Y-52300
X72800Y-52900
X72800Y-53600
X72800Y-54400
X73000Y-20000
X73000Y-23000
X73000Y-37000
X73000Y-40000
X73250Y-29700
X73400Y-25200
X73500Y-48000
X73500Y-49000
X73500Y-50000
X73500Y-52300
X73500Y-52900
X73500Y-53600
X73500Y-54400
X74000Y-25800
X74000Y-37000
X74000Y-39500
X74150Y-28050
X74500Y-49000
X74500Y-50000
X74600Y-24800
X74750Y-27150
X75000Y-12000
X75000Y-13000
X75000Y-14000
X75000Y-15000
X75000Y-23600
X75000Y-37000
X75000Y-39000
X75000Y-41000
X75500Y-50000
X75800Y-24200
X76000Y-13000
X76000Y-14000
X76000Y-15000
X76000Y-21000
X76000Y-23000
X76000Y-37000
X76000Y-51000
X76400Y-22200
X76600Y-33800
X76900Y-25900
X77000Y-12000
X77000Y-13000
X77000Y-14000
X77000Y-15000
X77000Y-29000
X77000Y-37000
X77000Y-38000
X77000Y-39000
X77000Y-41000
X77000Y-42000
X77000Y-46000
X77000Y-51500
X77200Y-23000
X77400Y-20800
X77400Y-22000
X78000Y-13000
X78000Y-14000
X78000Y-15000
X78000Y-37000
X78000Y-38000
X78000Y-39000
X78000Y-40000
X78000Y-42000
X78000Y-46000
X78200Y-21600
X78925Y-20750
X79000Y-12000
X79000Y-14000
X79000Y-15000
X79000Y-31000
X79000Y-37000
X79000Y-38000
X79000Y-39000
X79000Y-40000
X79000Y-41000
X79000Y-42000
X79375Y-25225
X79400Y-22300
X80000Y-13000
X80000Y-14000
X80000Y-15000
X80000Y-21800
X80000Y-27000
X80000Y-37000
X80000Y-38000
X80000Y-39000
X80000Y-40000
X80000Y-42000
X80000Y-46000
X80000Y-47000
X80000Y-49000
X80600Y-25400
X80800Y-21000
X81000Y-12000
X81000Y-14000
X81000Y-15000
X81000Y-24000
X81000Y-29000
X81000Y-31000
X81000Y-37000
X81000Y-38000
X81000Y-39000
X81000Y-40000
X81975Y-22050
X82000Y-15000
X82000Y-37000
X82000Y-38000
X82000Y-39000
X82000Y-40000
X82000Y-46000
X82400Y-22800
X82850Y-25300
X82948Y-25948
X83000Y-12000
X83000Y-14000
X83000Y-15000
X83000Y-23800
X83000Y-28000
X83000Y-30000
X83000Y-37000
X83000Y-38000
X83000Y-39000
X83000Y-40000
X83000Y-47000
X83000Y-49000
X83000Y-52000
X83600Y-22200
X83600Y-32000
X84000Y-15000
X84000Y-37000
X84000Y-38000
X84000Y-39000
X84000Y-40000
X84000Y-43000
X84000Y-44000
X84000Y-45000
X84000Y-46000
X84000Y-47000
X84200Y-21400
X84600Y-30600
X84800Y-22400
X85000Y-12000
X85000Y-14000
X85000Y-15000
X85000Y-26000
X85000Y-37000
X85000Y-38000
X85000Y-39000
X85000Y-40000
X85000Y-44000
X85000Y-45000
X85000Y-46000
X85152Y-24552
X85200Y-28000
X85200Y-30000
X85200Y-32600
X85750Y-20900
X86000Y-15000
X86000Y-37000
X86000Y-38000
X86000Y-39000
X86000Y-40000
X86000Y-44000
X86000Y-45000
X86000Y-46000
X86000Y-49000
X86000Y-52000
X86400Y-22000
X86400Y-25000
X86400Y-33400
X86450Y-20950
X86600Y-27000
X86600Y-31200
X87000Y-15000
X87000Y-28400
X87000Y-37000
X87000Y-38000
X87000Y-39000
X87000Y-40000
X87000Y-43000
X87000Y-44000
X87000Y-45000
X87000Y-46000
X87150Y-21000
X87200Y-23600
X87200Y-25800
X87800Y-31800
X88000Y-12000
X88000Y-14000
X88000Y-15000
X88000Y-24800
X88000Y-33000
X88000Y-37000
X88000Y-38000
X88000Y-39000
X88000Y-40000
X88000Y-44000
X88000Y-46000
X88000Y-49000
X88000Y-52000
X88200Y-20800
X88200Y-27000
X88200Y-29000
X88600Y-16500
X88600Y-22800
X88600Y-27800
X89000Y-15000
X89000Y-31000
X89000Y-37000
X89000Y-38000
X89000Y-39000
X89000Y-40000
X89000Y-47000
X90000Y-15000
X90000Y-16000
X90000Y-37000
X90000Y-38000
X90000Y-39000
X90000Y-40000
X90000Y-44000
X90000Y-46000
X90000Y-49000
X90600Y-28600
X91000Y-12000
X91000Y-14000
X91000Y-15000
X91000Y-16000
X91000Y-21000
X91000Y-23000
X91000Y-27000
X91000Y-30000
X91000Y-39000
X91000Y-40000
X91000Y-43000
X91000Y-44000
X91000Y-45000
X91000Y-46000
X91000Y-49000
X91000Y-52000
X92000Y-15000
X92000Y-16000
X92000Y-22000
X92000Y-28000
X92000Y-29800
X92000Y-37000
X92000Y-38000
X92000Y-39000
X92000Y-40000
X93000Y-12000
X93000Y-14000
X93000Y-15000
X93000Y-16000
X93000Y-36000
X93000Y-37000
X93000Y-38000
X93000Y-39000
X93000Y-40000
X93000Y-44000
X93000Y-45000
X93000Y-46000
X93000Y-49000
X93000Y-52000
X94000Y-15000
X94000Y-16000
X94000Y-34000
X94000Y-35000
X94000Y-36000
X94000Y-37000
X94000Y-38000
X94000Y-39000
X94000Y-40000
X94000Y-41000
X94000Y-47000
X95000Y-12000
X95000Y-14000
X95000Y-15000
X95000Y-16000
X95000Y-21000
X95000Y-22000
X95000Y-23000
X95000Y-24000
X95000Y-25000
X95000Y-26000
X95000Y-27000
X95000Y-28000
X95000Y-29000
X95000Y-30000
X95000Y-31000
X95000Y-32000
X95000Y-33000
X95000Y-34000
X95000Y-35000
X95000Y-36000
X95000Y-37000
X95000Y-38000
X95000Y-39000
X95000Y-40000
X95000Y-41000
X95000Y-42000
X95000Y-44000
X95000Y-45000
X95000Y-46000
X95000Y-49000
X95000Y-52000
X96000Y-15000
X96000Y-16000
X96000Y-20000
X96000Y-21000
X96000Y-22000
X96000Y-23000
X96000Y-24000
X96000Y-25000
X96000Y-26000
X96000Y-27000
X96000Y-28000
X96000Y-29000
X96000Y-30000
X96000Y-31000
X96000Y-32000
X96000Y-33000
X96000Y-34000
X96000Y-35000
X96000Y-36000
X96000Y-37000
X96000Y-38000
X96000Y-39000
X96000Y-40000
X96000Y-41000
X96000Y-42000
X96000Y-45000
X96000Y-46000
X97000Y-15000
X97000Y-16000
X97000Y-17000
X97000Y-18000
X97000Y-19000
X97000Y-20000
X97000Y-21000
X97000Y-22000
X97000Y-25000
X97000Y-26000
X97000Y-27000
X97000Y-28000
X97000Y-29000
X97000Y-30000
X97000Y-31000
X97000Y-32000
X97000Y-33000
X97000Y-34000
X97000Y-35000
X97000Y-36000
X97000Y-37000
X97000Y-38000
X97000Y-41000
X97000Y-42000
X97000Y-44000
X97000Y-48000
X98000Y-15000
X98000Y-16000
X98000Y-17000
X98000Y-18000
X98000Y-19000
X98000Y-20000
X98000Y-21000
X98000Y-22000
X98000Y-25000
X98000Y-26000
X98000Y-27000
X98000Y-28000
X98000Y-29000
X98000Y-30000
X98000Y-31000
X98000Y-32000
X98000Y-33000
X98000Y-34000
X98000Y-35000
X98000Y-36000
X98000Y-37000
X98000Y-38000
X98000Y-41000
X98000Y-45000
X98000Y-46000
X98000Y-49000
X99000Y-15000
X99000Y-16000
X99000Y-17000
X99000Y-18000
X99000Y-19000
X99000Y-20000
X99000Y-21000
X99000Y-22000
X99000Y-23000
X99000Y-24000
X99000Y-25000
X99000Y-26000
X99000Y-27000
X99000Y-28000
X99000Y-29000
X99000Y-30000
X99000Y-31000
X99000Y-32000
X99000Y-33000
X99000Y-34000
X99000Y-35000
X99000Y-36000
X99000Y-37000
X99000Y-38000
X99000Y-39000
X99000Y-40000
X99000Y-41000
X99000Y-42000
T2
X97055Y-13000
X97332Y-12332
X97332Y-13668
X98000Y-12055
X98000Y-13945
X98668Y-12332
X98668Y-13668
X98945Y-13000
X31055Y-13000
X31332Y-12332
X31332Y-13668
X32000Y-12055
X32000Y-13945
X32668Y-12332
X32668Y-13668
X32945Y-13000
X97055Y-53000
X97332Y-52332
X97332Y-53668
X98000Y-52055
X98000Y-53945
X98668Y-52332
X98668Y-53668
X98945Y-53000
X31255Y-52800
X31532Y-52132
X31532Y-53468
X32200Y-51855
X32200Y-53745
X32868Y-52132
X32868Y-53468
X33145Y-52800
T3
X75000Y-43360
X75000Y-52360
X76000Y-43520
X76000Y-52520
X77000Y-43360
X77000Y-52360
X78000Y-43520
X78000Y-52520
X79000Y-43360
X79000Y-52360
X80000Y-43520
X80000Y-52520
X81000Y-43360
X81000Y-52360
X82000Y-43520
X82000Y-52448
X46000Y-29920
X46000Y-38920
X47000Y-30080
X47000Y-39080
X48000Y-29920
X48000Y-38920
X49000Y-30080
X49000Y-39080
X50000Y-29920
X50000Y-38920
X51000Y-30080
X51000Y-39080
X52000Y-29920
X52000Y-38920
X53000Y-30080
X53000Y-39080
X54000Y-29920
X54000Y-38920
X55000Y-30080
X55000Y-39080
X56000Y-29920
X56000Y-38920
X57000Y-30080
X57000Y-39080
X58000Y-29920
X58000Y-38920
X59000Y-30080
X59000Y-39080
X60000Y-29920
X60000Y-38920
X61000Y-30080
X61000Y-39080
X62000Y-29920
X62000Y-38920
X63000Y-30080
X63000Y-39080
X64000Y-29920
X64000Y-38920
X68320Y-26774
X68320Y-28774
X68320Y-30774
X68320Y-32774
X68320Y-34774
X68320Y-36774
X68480Y-25774
X68480Y-27774
X68480Y-29774
X68480Y-31774
X68480Y-33774
X68480Y-35774
X69320Y-26774
X69320Y-28774
X69320Y-30774
X69320Y-32774
X69320Y-34774
X69400Y-36774
X69480Y-25774
X69480Y-27774
X69480Y-29774
X69480Y-31774
X69480Y-33774
X69480Y-35774
T4
X46000Y-27570
X47000Y-27730
X38500Y-25970
X39500Y-26130
X40500Y-25970
X79775Y-18550
X79935Y-17550
X79935Y-19550
X93935Y-18550
X94095Y-17550
X94095Y-19550
X60517Y-46530
X60517Y-48530
X60517Y-50530
X60605Y-45530
X60605Y-47530
X60605Y-49530
X60605Y-51530
X61445Y-46530
X61445Y-48530
X61445Y-50530
X61605Y-45530
X61605Y-47530
X61605Y-49530
X61605Y-51530
X71720Y-44400
X71720Y-46400
X71880Y-43400
X71880Y-45400
X91095Y-18550
X91255Y-17550
X91255Y-19550
X61500Y-17650
X62500Y-17810
X86855Y-18550
X87015Y-17550
X87015Y-19550
X81195Y-18550
X81355Y-17550
X81355Y-19550
X35420Y-13525
X35420Y-15525
X35580Y-14525
X78355Y-18550
X78515Y-17550
X78515Y-19550
X38920Y-30250
X39080Y-29250
X39080Y-31250
X85435Y-18550
X85595Y-17550
X85595Y-19550
X89695Y-18550
X89855Y-17550
X89855Y-19550
X88275Y-18550
X88435Y-17550
X88435Y-19550
X92515Y-18550
X92675Y-17550
X92675Y-19550
X75895Y-19075
X76055Y-18075
X84015Y-18550
X84175Y-17550
X84175Y-19550
X95370Y-18550
X95530Y-17550
X95530Y-19550
X82615Y-18550
X82775Y-17550
X82775Y-19550
X64420Y-43000
X64420Y-45000
X64580Y-42000
X64580Y-44000
T5
X36000Y-38000
T6
X98000Y-13000
X32000Y-13000
X98000Y-53000
X32200Y-52800
T4
X39150Y-13475G85X39150Y-14263
G05
X41394Y-12688G85X40606Y-12688
G05
X41394Y-15050G85X40606Y-15050
G05
T0
M30
