M48
;DRILL file {KiCad 5.0.0-rc2-dev-unknown-6866c0c~65~ubuntu16.04.1} date Mon May 21 19:37:48 2018
;FORMAT={-:-/ absolute / metric / decimal}
FMAT,2
METRIC,TZ
T1C0.400
T2C0.500
T3C0.762
T4C1.000
T5C2.500
T6C3.200
%
G90
G05
M71
T1
X78.74Y-68.58
X78.74Y-78.74
X78.74Y-83.82
X78.74Y-88.9
X78.74Y-93.98
X78.74Y-99.06
X78.74Y-104.14
X78.74Y-109.22
X78.74Y-114.3
X78.74Y-119.38
X78.74Y-124.46
X78.74Y-129.54
X81.28Y-40.64
X81.28Y-48.26
X81.28Y-55.88
X82.042Y-88.011
X83.82Y-63.5
X83.82Y-68.58
X83.82Y-73.66
X83.82Y-93.98
X83.82Y-99.06
X83.82Y-114.3
X83.82Y-119.38
X83.82Y-124.46
X83.82Y-129.54
X88.9Y-50.8
X88.9Y-63.5
X88.9Y-68.58
X88.9Y-73.66
X88.9Y-93.98
X88.9Y-99.06
X88.9Y-114.3
X88.9Y-119.38
X88.9Y-124.46
X88.9Y-129.54
X89.916Y-55.372
X90.424Y-78.232
X92.916Y-57.467
X92.964Y-80.518
X93.98Y-40.64
X93.98Y-50.8
X93.98Y-68.58
X93.98Y-93.98
X93.98Y-99.06
X93.98Y-114.3
X93.98Y-119.38
X93.98Y-124.46
X93.98Y-129.54
X93.98Y-134.62
X95.25Y-81.28
X95.25Y-82.55
X97.79Y-81.28
X97.79Y-82.55
X99.06Y-50.8
X99.06Y-55.88
X99.06Y-60.96
X99.06Y-93.98
X99.06Y-99.06
X99.06Y-104.14
X99.06Y-114.3
X99.06Y-119.38
X99.06Y-124.46
X99.06Y-129.54
X99.06Y-134.62
X100.33Y-81.28
X100.33Y-82.55
X100.584Y-69.977
X101.346Y-91.186
X103.759Y-68.707
X103.886Y-90.424
X104.14Y-55.88
X104.14Y-60.96
X104.14Y-93.98
X104.14Y-99.06
X104.14Y-104.14
X104.14Y-114.3
X104.14Y-119.38
X104.14Y-124.46
X104.14Y-129.54
X104.14Y-134.62
X104.267Y-80.137
X105.156Y-87.122
X105.41Y-81.28
X105.664Y-73.279
X106.553Y-86.106
X106.68Y-64.516
X106.68Y-67.056
X108.077Y-80.391
X108.204Y-67.056
X109.22Y-83.82
X109.22Y-114.3
X109.22Y-119.38
X109.22Y-124.46
X109.22Y-129.54
X109.22Y-134.62
X109.66Y-74.363
X111.76Y-30.48
X111.76Y-35.56
X111.76Y-39.37
X114.3Y-119.38
X114.3Y-124.46
X114.3Y-129.54
X114.3Y-134.62
X114.803Y-86.355
X116.459Y-81.407
X116.84Y-30.48
X116.84Y-35.56
X116.84Y-39.37
X117.851Y-78.989
X119.38Y-119.38
X119.38Y-124.46
X119.38Y-129.54
X119.38Y-134.62
X121.92Y-30.48
X121.92Y-35.56
X121.92Y-39.37
X124.46Y-119.38
X124.46Y-124.46
X124.46Y-129.54
X124.46Y-134.62
X125.417Y-85.403
X126.492Y-83.275
X127.Y-30.48
X127.Y-35.56
X127.Y-39.37
X127.Y-73.406
X127.Y-106.68
X127.Y-107.95
X127.632Y-102.616
X128.27Y-107.95
X128.397Y-93.599
X129.54Y-72.39
X129.54Y-119.38
X129.54Y-124.46
X129.54Y-129.54
X129.54Y-134.62
X130.81Y-72.39
X130.81Y-78.777
X131.064Y-104.648
X132.08Y-30.48
X132.08Y-35.56
X132.08Y-39.37
X132.08Y-71.12
X132.08Y-72.39
X132.588Y-90.932
X132.588Y-102.743
X133.35Y-71.12
X133.35Y-72.39
X133.604Y-105.156
X133.726Y-91.699
X134.493Y-93.98
X134.62Y-71.12
X134.62Y-72.39
X134.62Y-106.68
X134.62Y-109.728
X134.62Y-134.62
X135.128Y-96.52
X135.89Y-71.12
X135.89Y-72.39
X136.144Y-106.68
X136.271Y-111.506
X137.16Y-30.48
X137.16Y-35.56
X137.16Y-39.37
X137.16Y-71.12
X137.16Y-72.39
X138.43Y-109.22
X138.43Y-114.3
X138.938Y-83.312
X139.7Y-91.313
X139.7Y-134.62
X140.081Y-116.84
X140.97Y-110.49
X142.24Y-30.48
X142.24Y-35.56
X142.24Y-113.03
X143.51Y-120.65
X143.51Y-123.19
X144.145Y-109.601
X144.418Y-94.234
X144.653Y-80.227
X144.78Y-87.376
X144.78Y-134.62
X144.907Y-89.789
X145.161Y-92.964
X145.415Y-109.855
X145.542Y-81.661
X145.542Y-97.409
X145.796Y-125.349
X146.05Y-41.91
X146.05Y-121.92
X146.304Y-96.012
X147.066Y-127.889
X147.32Y-30.48
X147.32Y-35.56
X147.32Y-104.14
X147.32Y-111.76
X147.701Y-136.779
X147.828Y-83.312
X148.209Y-78.613
X148.336Y-85.852
X148.382Y-81.062
X148.59Y-101.6
X148.59Y-105.41
X148.59Y-113.03
X148.59Y-120.65
X148.971Y-124.079
X149.86Y-92.837
X149.86Y-104.14
X149.86Y-114.3
X149.86Y-121.92
X150.114Y-90.297
X150.368Y-77.724
X150.749Y-127.635
X150.876Y-67.056
X151.13Y-109.728
X151.13Y-123.19
X151.892Y-80.264
X152.4Y-30.48
X152.4Y-35.56
X152.4Y-65.532
X152.4Y-67.056
X152.4Y-101.6
X152.908Y-71.12
X152.908Y-79.629
X152.908Y-84.582
X153.284Y-96.906
X153.328Y-136.792
X154.815Y-70.929
X154.94Y-41.91
X154.94Y-48.26
X154.94Y-53.34
X154.94Y-57.15
X154.94Y-60.96
X155.067Y-80.899
X155.067Y-86.106
X155.067Y-105.918
X155.956Y-97.536
X156.21Y-105.41
X156.464Y-74.041
X156.972Y-94.996
X157.48Y-30.48
X157.48Y-35.56
X157.988Y-123.952
X157.988Y-136.779
X158.242Y-103.505
X158.75Y-94.234
X159.387Y-70.993
X161.29Y-101.6
X161.544Y-104.013
X162.56Y-30.48
X162.56Y-35.56
X162.56Y-40.64
X162.56Y-48.26
X162.56Y-53.34
X162.574Y-95.255
X163.83Y-101.219
X164.211Y-97.536
X165.1Y-103.632
X166.28Y-96.901
X166.37Y-107.95
X166.37Y-110.49
X166.875Y-136.715
X166.878Y-133.223
X167.64Y-30.48
X167.64Y-35.56
X167.64Y-40.64
X167.64Y-109.22
X167.64Y-111.76
X167.64Y-114.3
X167.64Y-116.84
X167.64Y-119.38
X167.894Y-75.692
X168.021Y-77.851
X168.275Y-71.755
X170.18Y-68.58
X170.18Y-109.22
X170.18Y-111.76
X170.18Y-114.3
X170.18Y-116.84
X170.18Y-119.38
X170.18Y-121.92
X170.942Y-102.616
X172.212Y-105.156
X172.72Y-30.48
X172.72Y-35.56
X172.72Y-40.64
X177.546Y-97.282
X177.8Y-30.48
X177.8Y-35.56
X177.8Y-40.64
X177.8Y-48.26
X177.927Y-77.978
X178.242Y-112.776
X178.816Y-85.852
X180.34Y-58.42
X180.34Y-120.65
X180.975Y-128.778
X180.975Y-129.921
X180.975Y-131.191
X180.975Y-132.842
X181.102Y-134.366
X181.102Y-138.176
X182.88Y-30.48
X182.88Y-35.56
X182.88Y-40.64
X182.88Y-138.176
X183.134Y-131.318
X183.134Y-132.842
X183.134Y-134.366
X183.134Y-136.144
X184.15Y-75.184
X184.15Y-99.06
X184.15Y-113.03
X184.15Y-116.84
X184.15Y-120.65
X184.15Y-124.46
X184.15Y-127.
X184.658Y-77.851
X184.912Y-66.548
X184.912Y-132.842
X184.912Y-134.366
X184.912Y-136.144
X184.912Y-138.176
X185.42Y-50.8
X185.42Y-58.42
X185.42Y-93.98
X185.42Y-101.6
X186.055Y-75.438
X186.436Y-64.008
X186.69Y-121.92
X186.69Y-124.46
X186.69Y-127.
X186.69Y-132.842
X186.69Y-134.366
X186.69Y-136.144
X186.69Y-138.176
X187.96Y-65.532
X187.96Y-93.98
X187.96Y-100.33
X188.341Y-71.247
X189.23Y-124.46
X189.23Y-127.
X189.484Y-62.992
X189.865Y-68.961
X190.5Y-30.48
X190.5Y-33.02
X190.5Y-35.56
X190.5Y-38.1
X190.5Y-59.944
X190.5Y-93.98
X190.5Y-99.06
X190.5Y-104.14
X191.77Y-127.
X192.532Y-61.468
X193.04Y-33.02
X193.04Y-35.56
X193.04Y-38.1
X193.04Y-53.34
X193.04Y-58.42
X193.04Y-93.98
X193.04Y-129.54
X194.056Y-56.388
X194.564Y-85.852
X195.326Y-65.786
X195.58Y-30.48
X195.58Y-33.02
X195.58Y-35.56
X195.58Y-38.1
X195.58Y-73.66
X195.58Y-93.98
X195.58Y-96.52
X195.58Y-99.06
X195.58Y-104.14
X195.58Y-106.68
X195.58Y-116.84
X195.58Y-130.81
X196.088Y-58.42
X196.596Y-52.832
X196.596Y-55.88
X198.12Y-33.02
X198.12Y-35.56
X198.12Y-38.1
X198.12Y-93.98
X198.12Y-96.52
X198.12Y-99.06
X198.12Y-101.6
X198.12Y-106.68
X198.12Y-116.84
X198.628Y-54.864
X200.469Y-52.705
X200.66Y-30.48
X200.66Y-35.56
X200.66Y-38.1
X200.66Y-78.74
X200.66Y-93.98
X200.66Y-96.52
X200.66Y-99.06
X200.66Y-101.6
X200.66Y-104.14
X200.66Y-106.68
X201.612Y-64.072
X201.676Y-56.642
X203.2Y-33.02
X203.2Y-35.56
X203.2Y-38.1
X203.2Y-55.372
X203.2Y-68.58
X203.2Y-93.98
X203.2Y-96.52
X203.2Y-99.06
X203.2Y-101.6
X203.2Y-106.68
X203.2Y-116.84
X203.2Y-119.38
X203.2Y-124.46
X204.724Y-64.516
X205.232Y-53.34
X205.74Y-30.48
X205.74Y-35.56
X205.74Y-38.1
X205.74Y-60.96
X205.74Y-73.66
X205.74Y-78.74
X205.74Y-93.98
X205.74Y-96.52
X205.74Y-99.06
X205.74Y-101.6
X208.216Y-56.007
X208.28Y-38.1
X208.28Y-93.98
X208.28Y-96.52
X208.28Y-99.06
X208.28Y-101.6
X208.28Y-116.84
X209.296Y-57.912
X210.439Y-64.262
X210.688Y-65.908
X210.82Y-30.48
X210.82Y-35.56
X210.82Y-38.1
X210.82Y-60.452
X210.82Y-71.12
X210.82Y-76.2
X210.82Y-93.98
X210.82Y-96.52
X210.82Y-99.06
X210.82Y-101.6
X210.82Y-119.38
X210.82Y-124.46
X210.82Y-132.08
X212.344Y-56.388
X212.344Y-81.28
X213.36Y-38.1
X213.36Y-93.98
X213.36Y-96.52
X213.36Y-99.06
X213.36Y-101.6
X213.36Y-109.22
X213.36Y-111.76
X213.36Y-114.3
X213.36Y-116.84
X213.36Y-119.38
X213.868Y-54.356
X214.884Y-77.724
X215.392Y-56.896
X215.9Y-30.48
X215.9Y-35.56
X215.9Y-38.1
X215.9Y-66.04
X215.9Y-93.98
X215.9Y-96.52
X215.9Y-99.06
X215.9Y-101.6
X215.9Y-111.76
X215.9Y-114.3
X215.9Y-116.84
X216.286Y-62.362
X216.408Y-71.12
X216.408Y-76.2
X216.408Y-82.804
X217.805Y-53.086
X218.44Y-38.1
X218.44Y-93.98
X218.44Y-96.52
X218.44Y-99.06
X218.44Y-101.6
X218.44Y-111.76
X218.44Y-114.3
X218.44Y-116.84
X218.44Y-124.46
X218.44Y-132.08
X219.456Y-55.88
X219.456Y-63.5
X219.456Y-84.836
X219.583Y-53.213
X219.964Y-68.58
X219.964Y-79.248
X220.98Y-38.1
X220.98Y-72.136
X220.98Y-93.98
X220.98Y-96.52
X220.98Y-99.06
X220.98Y-101.6
X220.98Y-109.22
X220.98Y-111.76
X220.98Y-114.3
X220.98Y-116.84
X221.361Y-53.34
X221.488Y-59.944
X221.488Y-65.532
X223.012Y-80.772
X223.52Y-30.48
X223.52Y-35.56
X223.52Y-38.1
X223.52Y-62.992
X223.52Y-83.82
X223.52Y-93.98
X223.52Y-96.52
X223.52Y-99.06
X223.52Y-101.6
X223.52Y-111.76
X223.52Y-116.84
X223.52Y-124.46
X223.52Y-132.08
X224.028Y-52.832
X224.028Y-68.58
X224.028Y-73.66
X225.044Y-41.91
X225.044Y-57.912
X225.044Y-70.612
X226.06Y-38.1
X226.06Y-78.74
X226.06Y-93.98
X226.06Y-96.52
X226.06Y-99.06
X226.06Y-101.6
X226.06Y-119.38
X228.6Y-38.1
X228.6Y-40.64
X228.6Y-93.98
X228.6Y-96.52
X228.6Y-99.06
X228.6Y-101.6
X228.6Y-111.76
X228.6Y-116.84
X228.6Y-124.46
X230.124Y-72.644
X231.14Y-30.48
X231.14Y-35.56
X231.14Y-38.1
X231.14Y-40.64
X231.14Y-53.34
X231.14Y-58.42
X231.14Y-68.58
X231.14Y-76.2
X231.14Y-99.06
X231.14Y-101.6
X231.14Y-109.22
X231.14Y-111.76
X231.14Y-114.3
X231.14Y-116.84
X231.14Y-124.46
X231.14Y-132.08
X233.68Y-38.1
X233.68Y-40.64
X233.68Y-55.88
X233.68Y-71.12
X233.68Y-75.692
X233.68Y-93.98
X233.68Y-96.52
X233.68Y-99.06
X233.68Y-101.6
X236.22Y-30.48
X236.22Y-35.56
X236.22Y-38.1
X236.22Y-40.64
X236.22Y-91.44
X236.22Y-93.98
X236.22Y-96.52
X236.22Y-99.06
X236.22Y-101.6
X236.22Y-111.76
X236.22Y-114.3
X236.22Y-116.84
X236.22Y-124.46
X236.22Y-132.08
X238.76Y-38.1
X238.76Y-40.64
X238.76Y-86.36
X238.76Y-88.9
X238.76Y-91.44
X238.76Y-93.98
X238.76Y-96.52
X238.76Y-99.06
X238.76Y-101.6
X238.76Y-104.14
X238.76Y-119.38
X241.3Y-30.48
X241.3Y-35.56
X241.3Y-38.1
X241.3Y-40.64
X241.3Y-53.34
X241.3Y-55.88
X241.3Y-58.42
X241.3Y-60.96
X241.3Y-63.5
X241.3Y-66.04
X241.3Y-68.58
X241.3Y-71.12
X241.3Y-73.66
X241.3Y-76.2
X241.3Y-78.74
X241.3Y-81.28
X241.3Y-83.82
X241.3Y-86.36
X241.3Y-88.9
X241.3Y-91.44
X241.3Y-93.98
X241.3Y-96.52
X241.3Y-99.06
X241.3Y-101.6
X241.3Y-104.14
X241.3Y-106.68
X241.3Y-111.76
X241.3Y-114.3
X241.3Y-116.84
X241.3Y-124.46
X241.3Y-132.08
X243.84Y-38.1
X243.84Y-40.64
X243.84Y-50.8
X243.84Y-53.34
X243.84Y-55.88
X243.84Y-58.42
X243.84Y-60.96
X243.84Y-63.5
X243.84Y-66.04
X243.84Y-68.58
X243.84Y-71.12
X243.84Y-73.66
X243.84Y-76.2
X243.84Y-78.74
X243.84Y-81.28
X243.84Y-83.82
X243.84Y-86.36
X243.84Y-88.9
X243.84Y-91.44
X243.84Y-93.98
X243.84Y-96.52
X243.84Y-99.06
X243.84Y-101.6
X243.84Y-104.14
X243.84Y-106.68
X243.84Y-114.3
X243.84Y-116.84
X246.38Y-38.1
X246.38Y-40.64
X246.38Y-43.18
X246.38Y-45.72
X246.38Y-48.26
X246.38Y-50.8
X246.38Y-53.34
X246.38Y-55.88
X246.38Y-63.5
X246.38Y-66.04
X246.38Y-68.58
X246.38Y-71.12
X246.38Y-73.66
X246.38Y-76.2
X246.38Y-78.74
X246.38Y-81.28
X246.38Y-83.82
X246.38Y-86.36
X246.38Y-88.9
X246.38Y-91.44
X246.38Y-93.98
X246.38Y-96.52
X246.38Y-104.14
X246.38Y-106.68
X246.38Y-111.76
X246.38Y-121.92
X248.92Y-38.1
X248.92Y-40.64
X248.92Y-43.18
X248.92Y-45.72
X248.92Y-48.26
X248.92Y-50.8
X248.92Y-53.34
X248.92Y-55.88
X248.92Y-63.5
X248.92Y-66.04
X248.92Y-68.58
X248.92Y-71.12
X248.92Y-73.66
X248.92Y-76.2
X248.92Y-78.74
X248.92Y-81.28
X248.92Y-83.82
X248.92Y-86.36
X248.92Y-88.9
X248.92Y-91.44
X248.92Y-93.98
X248.92Y-96.52
X248.92Y-104.14
X248.92Y-114.3
X248.92Y-116.84
X248.92Y-124.46
X251.46Y-38.1
X251.46Y-40.64
X251.46Y-43.18
X251.46Y-45.72
X251.46Y-48.26
X251.46Y-50.8
X251.46Y-53.34
X251.46Y-55.88
X251.46Y-58.42
X251.46Y-60.96
X251.46Y-63.5
X251.46Y-66.04
X251.46Y-68.58
X251.46Y-71.12
X251.46Y-73.66
X251.46Y-76.2
X251.46Y-78.74
X251.46Y-81.28
X251.46Y-83.82
X251.46Y-86.36
X251.46Y-88.9
X251.46Y-91.44
X251.46Y-93.98
X251.46Y-96.52
X251.46Y-99.06
X251.46Y-101.6
X251.46Y-104.14
X251.46Y-106.68
T2
X246.52Y-33.02
X247.223Y-31.323
X247.223Y-34.717
X248.92Y-30.62
X248.92Y-35.42
X250.617Y-31.323
X250.617Y-34.717
X251.32Y-33.02
X78.88Y-33.02
X79.583Y-31.323
X79.583Y-34.717
X81.28Y-30.62
X81.28Y-35.42
X82.977Y-31.323
X82.977Y-34.717
X83.68Y-33.02
X79.388Y-134.112
X80.091Y-132.415
X80.091Y-135.809
X81.788Y-131.712
X81.788Y-136.512
X83.485Y-132.415
X83.485Y-135.809
X84.188Y-134.112
X246.52Y-134.62
X247.223Y-132.923
X247.223Y-136.317
X248.92Y-132.22
X248.92Y-137.02
X250.617Y-132.923
X250.617Y-136.317
X251.32Y-134.62
T3
X116.84Y-75.997
X116.84Y-98.857
X119.38Y-76.403
X119.38Y-99.263
X121.92Y-75.997
X121.92Y-98.857
X124.46Y-76.403
X124.46Y-99.263
X127.Y-75.997
X127.Y-98.857
X129.54Y-76.403
X129.54Y-99.263
X132.08Y-75.997
X132.08Y-98.857
X134.62Y-76.403
X134.62Y-99.263
X137.16Y-75.997
X137.16Y-98.857
X139.7Y-76.403
X139.7Y-99.263
X142.24Y-75.997
X142.24Y-98.857
X144.78Y-76.403
X144.78Y-99.263
X147.32Y-75.997
X147.32Y-98.857
X149.86Y-76.403
X149.86Y-99.263
X152.4Y-75.997
X152.4Y-98.857
X154.94Y-76.403
X154.94Y-99.263
X157.48Y-75.997
X157.48Y-98.857
X160.02Y-76.403
X160.02Y-99.263
X162.56Y-75.997
X162.56Y-98.857
X173.533Y-68.006
X173.533Y-73.086
X173.533Y-78.166
X173.533Y-83.246
X173.533Y-88.326
X173.533Y-93.406
X173.939Y-65.466
X173.939Y-70.546
X173.939Y-75.626
X173.939Y-80.706
X173.939Y-85.786
X173.939Y-90.866
X176.073Y-68.006
X176.073Y-73.086
X176.073Y-78.166
X176.073Y-83.246
X176.073Y-88.326
X176.276Y-93.406
X176.479Y-65.466
X176.479Y-70.546
X176.479Y-75.626
X176.479Y-80.706
X176.479Y-85.786
X176.479Y-90.866
X190.5Y-110.134
X190.5Y-132.994
X193.04Y-110.541
X193.04Y-133.401
X195.58Y-110.134
X195.58Y-132.994
X198.12Y-110.541
X198.12Y-133.401
X200.66Y-110.134
X200.66Y-132.994
X203.2Y-110.541
X203.2Y-133.401
X205.74Y-110.134
X205.74Y-132.994
X208.28Y-110.541
X208.28Y-133.218
T4
X220.612Y-47.117
X221.018Y-44.577
X221.018Y-49.657
X192.773Y-48.45
X193.18Y-45.91
X89.967Y-34.353
X89.967Y-39.433
X90.373Y-36.893
X231.381Y-47.117
X231.788Y-44.577
X231.788Y-49.657
X199.022Y-47.117
X199.428Y-44.577
X199.428Y-49.657
X97.79Y-65.964
X100.33Y-66.37
X102.87Y-65.964
X234.988Y-47.117
X235.394Y-44.577
X235.394Y-49.657
X238.595Y-47.117
X239.001Y-44.577
X239.001Y-49.657
X116.84Y-70.028
X119.38Y-70.434
X206.235Y-47.117
X206.642Y-44.577
X206.642Y-49.657
X209.842Y-47.117
X210.248Y-44.577
X210.248Y-49.657
X156.21Y-44.831
X158.75Y-45.237
X217.005Y-47.117
X217.411Y-44.577
X217.411Y-49.657
X163.627Y-109.22
X163.627Y-114.3
X164.033Y-106.68
X164.033Y-111.76
X242.24Y-47.117
X242.646Y-44.577
X242.646Y-49.657
X227.825Y-47.117
X228.232Y-44.577
X228.232Y-49.657
X98.857Y-76.835
X99.263Y-74.295
X99.263Y-79.375
X182.169Y-112.776
X182.169Y-117.856
X182.575Y-110.236
X182.575Y-115.316
X202.629Y-47.117
X203.035Y-44.577
X203.035Y-49.657
X224.218Y-47.117
X224.625Y-44.577
X224.625Y-49.657
X213.398Y-47.117
X213.804Y-44.577
X213.804Y-49.657
X153.714Y-118.186
X153.714Y-123.266
X153.714Y-128.346
X153.937Y-115.646
X153.937Y-120.726
X153.937Y-125.806
X153.937Y-130.886
X156.071Y-118.186
X156.071Y-123.266
X156.071Y-128.346
X156.477Y-115.646
X156.477Y-120.726
X156.477Y-125.806
X156.477Y-130.886
T5
X91.44Y-96.52
T6
X248.92Y-33.02
X81.28Y-33.02
X81.788Y-134.112
X248.92Y-134.62
T4
X99.44Y-34.227G85X99.44Y-36.227
G05
X105.14Y-32.227G85X103.14Y-32.227
G05
X105.14Y-38.227G85X103.14Y-38.227
G05
T0
M30
