G04 #@! TF.GenerationSoftware,KiCad,Pcbnew,5.0.0-rc2-dev-unknown-e0e0687~62~ubuntu16.04.1*
G04 #@! TF.CreationDate,2018-05-04T13:50:56+03:00*
G04 #@! TF.ProjectId,prototype,70726F746F747970652E6B696361645F,1*
G04 #@! TF.SameCoordinates,Original*
G04 #@! TF.FileFunction,Profile,NP*
%FSLAX46Y46*%
G04 Gerber Fmt 4.6, Leading zero omitted, Abs format (unit mm)*
G04 Created by KiCad (PCBNEW 5.0.0-rc2-dev-unknown-e0e0687~62~ubuntu16.04.1) date Fri May  4 13:50:56 2018*
%MOMM*%
%LPD*%
G01*
G04 APERTURE LIST*
%ADD10C,0.200000*%
%ADD11C,0.150000*%
G04 APERTURE END LIST*
D10*
X92985022Y-96520000D02*
G75*
G03X92985022Y-96520000I-1545022J0D01*
G01*
X110236000Y-47244000D02*
X110236000Y-45212000D01*
X108204000Y-47244000D02*
X110236000Y-47244000D01*
X108204000Y-63754000D02*
X108204000Y-47244000D01*
X110236000Y-63754000D02*
X108204000Y-63754000D01*
X110236000Y-65786000D02*
X110236000Y-63754000D01*
X148844000Y-65786000D02*
X110236000Y-65786000D01*
X148844000Y-63754000D02*
X148844000Y-65786000D01*
X150876000Y-63754000D02*
X148844000Y-63754000D01*
X150876000Y-47244000D02*
X150876000Y-63754000D01*
X148844000Y-47244000D02*
X150876000Y-47244000D01*
X148844000Y-45212000D02*
X148844000Y-47244000D01*
X110236000Y-45212000D02*
X148844000Y-45212000D01*
D11*
X76200000Y-113284000D02*
X76200000Y-111252000D01*
X142240000Y-139700000D02*
X140208000Y-139700000D01*
X140208000Y-139700000D02*
X81280000Y-139700000D01*
X76200000Y-113284000D02*
X76200000Y-134620000D01*
X76200000Y-111252000D02*
X76200000Y-33020000D01*
X248920000Y-139700000D02*
X142240000Y-139700000D01*
X81280000Y-139700000D02*
G75*
G02X76200000Y-134620000I0J5080000D01*
G01*
X81280000Y-27940000D02*
X248920000Y-27940000D01*
X76200000Y-33020000D02*
G75*
G02X81280000Y-27940000I5080000J0D01*
G01*
X254000000Y-33020000D02*
X254000000Y-134620000D01*
X248920000Y-27940000D02*
G75*
G02X254000000Y-33020000I0J-5080000D01*
G01*
X254000000Y-134620000D02*
G75*
G02X248920000Y-139700000I-5080000J0D01*
G01*
M02*
