G04 #@! TF.GenerationSoftware,KiCad,Pcbnew,5.0.0-rc2-dev-unknown-e0e0687~62~ubuntu16.04.1*
G04 #@! TF.CreationDate,2018-05-04T13:50:56+03:00*
G04 #@! TF.ProjectId,prototype,70726F746F747970652E6B696361645F,1*
G04 #@! TF.SameCoordinates,Original*
G04 #@! TF.FileFunction,Soldermask,Top*
G04 #@! TF.FilePolarity,Negative*
%FSLAX46Y46*%
G04 Gerber Fmt 4.6, Leading zero omitted, Abs format (unit mm)*
G04 Created by KiCad (PCBNEW 5.0.0-rc2-dev-unknown-e0e0687~62~ubuntu16.04.1) date Fri May  4 13:50:56 2018*
%MOMM*%
%LPD*%
G01*
G04 APERTURE LIST*
%ADD10C,1.924000*%
%ADD11R,2.000000X3.900000*%
%ADD12R,1.900000X1.545000*%
%ADD13R,3.900000X3.900000*%
%ADD14C,0.100000*%
%ADD15C,3.400000*%
%ADD16C,3.900000*%
%ADD17C,1.400000*%
%ADD18R,0.900000X1.900000*%
%ADD19R,1.370000X1.900000*%
%ADD20R,1.200000X2.200000*%
%ADD21R,1.300000X1.200000*%
%ADD22R,2.100000X2.900000*%
%ADD23R,1.400000X1.400000*%
%ADD24R,2.600000X1.400000*%
%ADD25R,2.100000X2.100000*%
%ADD26O,2.100000X2.100000*%
%ADD27C,3.600000*%
%ADD28C,2.900000*%
%ADD29C,6.800000*%
%ADD30C,1.200000*%
%ADD31R,1.545000X1.900000*%
%ADD32R,2.200000X1.645000*%
%ADD33R,1.460000X1.050000*%
%ADD34R,3.650000X3.830000*%
%ADD35C,18.180000*%
%ADD36R,5.480000X2.940000*%
%ADD37R,4.083000X4.083000*%
%ADD38R,1.400000X2.900000*%
%ADD39R,7.400000X1.900000*%
G04 APERTURE END LIST*
D10*
X116840000Y-98856800D03*
X119380000Y-99263200D03*
X121920000Y-98856800D03*
X124460000Y-99263200D03*
X127000000Y-98856800D03*
X129540000Y-99263200D03*
X132080000Y-98856800D03*
X134620000Y-99263200D03*
X137160000Y-98856800D03*
X139700000Y-99263200D03*
X142240000Y-98856800D03*
X144780000Y-99263200D03*
X147320000Y-98856800D03*
X149860000Y-99263200D03*
X152400000Y-98856800D03*
X154940000Y-99263200D03*
X157480000Y-98856800D03*
X160020000Y-99263200D03*
X162560000Y-98856800D03*
X162560000Y-75996800D03*
X160020000Y-76403200D03*
X157480000Y-75996800D03*
X154940000Y-76403200D03*
X152400000Y-75996800D03*
X149860000Y-76403200D03*
X147320000Y-75996800D03*
X144780000Y-76403200D03*
X142240000Y-75996800D03*
X139700000Y-76403200D03*
X137160000Y-75996800D03*
X134620000Y-76403200D03*
X132080000Y-75996800D03*
X129540000Y-76403200D03*
X127000000Y-75996800D03*
X124460000Y-76403200D03*
X121920000Y-75996800D03*
X119380000Y-76403200D03*
X116840000Y-75996800D03*
D11*
X180975000Y-124681000D03*
X180975000Y-130081000D03*
X160909000Y-62009000D03*
X160909000Y-56609000D03*
D12*
X167767000Y-67209500D03*
X167767000Y-65124500D03*
X185547000Y-131217500D03*
X185547000Y-129132500D03*
D13*
X104140000Y-38227000D03*
D14*
G36*
X105323315Y-30531093D02*
X105405827Y-30543333D01*
X105486742Y-30563601D01*
X105565281Y-30591702D01*
X105640687Y-30627367D01*
X105712235Y-30670251D01*
X105779234Y-30719941D01*
X105841041Y-30775959D01*
X105897059Y-30837766D01*
X105946749Y-30904765D01*
X105989633Y-30976313D01*
X106025298Y-31051719D01*
X106053399Y-31130258D01*
X106073667Y-31211173D01*
X106085907Y-31293685D01*
X106090000Y-31377000D01*
X106090000Y-33077000D01*
X106085907Y-33160315D01*
X106073667Y-33242827D01*
X106053399Y-33323742D01*
X106025298Y-33402281D01*
X105989633Y-33477687D01*
X105946749Y-33549235D01*
X105897059Y-33616234D01*
X105841041Y-33678041D01*
X105779234Y-33734059D01*
X105712235Y-33783749D01*
X105640687Y-33826633D01*
X105565281Y-33862298D01*
X105486742Y-33890399D01*
X105405827Y-33910667D01*
X105323315Y-33922907D01*
X105240000Y-33927000D01*
X103040000Y-33927000D01*
X102956685Y-33922907D01*
X102874173Y-33910667D01*
X102793258Y-33890399D01*
X102714719Y-33862298D01*
X102639313Y-33826633D01*
X102567765Y-33783749D01*
X102500766Y-33734059D01*
X102438959Y-33678041D01*
X102382941Y-33616234D01*
X102333251Y-33549235D01*
X102290367Y-33477687D01*
X102254702Y-33402281D01*
X102226601Y-33323742D01*
X102206333Y-33242827D01*
X102194093Y-33160315D01*
X102190000Y-33077000D01*
X102190000Y-31377000D01*
X102194093Y-31293685D01*
X102206333Y-31211173D01*
X102226601Y-31130258D01*
X102254702Y-31051719D01*
X102290367Y-30976313D01*
X102333251Y-30904765D01*
X102382941Y-30837766D01*
X102438959Y-30775959D01*
X102500766Y-30719941D01*
X102567765Y-30670251D01*
X102639313Y-30627367D01*
X102714719Y-30591702D01*
X102793258Y-30563601D01*
X102874173Y-30543333D01*
X102956685Y-30531093D01*
X103040000Y-30527000D01*
X105240000Y-30527000D01*
X105323315Y-30531093D01*
X105323315Y-30531093D01*
G37*
D15*
X104140000Y-32227000D03*
D14*
G36*
X100510567Y-33281695D02*
X100605213Y-33295734D01*
X100698028Y-33318983D01*
X100788116Y-33351217D01*
X100874612Y-33392127D01*
X100956681Y-33441317D01*
X101033533Y-33498315D01*
X101104429Y-33562571D01*
X101168685Y-33633467D01*
X101225683Y-33710319D01*
X101274873Y-33792388D01*
X101315783Y-33878884D01*
X101348017Y-33968972D01*
X101371266Y-34061787D01*
X101385305Y-34156433D01*
X101390000Y-34252000D01*
X101390000Y-36202000D01*
X101385305Y-36297567D01*
X101371266Y-36392213D01*
X101348017Y-36485028D01*
X101315783Y-36575116D01*
X101274873Y-36661612D01*
X101225683Y-36743681D01*
X101168685Y-36820533D01*
X101104429Y-36891429D01*
X101033533Y-36955685D01*
X100956681Y-37012683D01*
X100874612Y-37061873D01*
X100788116Y-37102783D01*
X100698028Y-37135017D01*
X100605213Y-37158266D01*
X100510567Y-37172305D01*
X100415000Y-37177000D01*
X98465000Y-37177000D01*
X98369433Y-37172305D01*
X98274787Y-37158266D01*
X98181972Y-37135017D01*
X98091884Y-37102783D01*
X98005388Y-37061873D01*
X97923319Y-37012683D01*
X97846467Y-36955685D01*
X97775571Y-36891429D01*
X97711315Y-36820533D01*
X97654317Y-36743681D01*
X97605127Y-36661612D01*
X97564217Y-36575116D01*
X97531983Y-36485028D01*
X97508734Y-36392213D01*
X97494695Y-36297567D01*
X97490000Y-36202000D01*
X97490000Y-34252000D01*
X97494695Y-34156433D01*
X97508734Y-34061787D01*
X97531983Y-33968972D01*
X97564217Y-33878884D01*
X97605127Y-33792388D01*
X97654317Y-33710319D01*
X97711315Y-33633467D01*
X97775571Y-33562571D01*
X97846467Y-33498315D01*
X97923319Y-33441317D01*
X98005388Y-33392127D01*
X98091884Y-33351217D01*
X98181972Y-33318983D01*
X98274787Y-33295734D01*
X98369433Y-33281695D01*
X98465000Y-33277000D01*
X100415000Y-33277000D01*
X100510567Y-33281695D01*
X100510567Y-33281695D01*
G37*
D16*
X99440000Y-35227000D03*
D14*
G36*
X94571613Y-52901371D02*
X94639564Y-52911450D01*
X94706200Y-52928142D01*
X94770879Y-52951284D01*
X94832979Y-52980655D01*
X94891900Y-53015971D01*
X94947076Y-53056893D01*
X94997976Y-53103025D01*
X95044108Y-53153925D01*
X95085030Y-53209101D01*
X95120346Y-53268022D01*
X95149717Y-53330122D01*
X95172859Y-53394801D01*
X95189551Y-53461437D01*
X95199630Y-53529388D01*
X95203001Y-53598000D01*
X95203001Y-54098000D01*
X95199630Y-54166612D01*
X95189551Y-54234563D01*
X95172859Y-54301199D01*
X95149717Y-54365878D01*
X95120346Y-54427978D01*
X95085030Y-54486899D01*
X95044108Y-54542075D01*
X94997976Y-54592975D01*
X94947076Y-54639107D01*
X94891900Y-54680029D01*
X94832979Y-54715345D01*
X94770879Y-54744716D01*
X94706200Y-54767858D01*
X94639564Y-54784550D01*
X94571613Y-54794629D01*
X94503001Y-54798000D01*
X94502999Y-54798000D01*
X94434387Y-54794629D01*
X94366436Y-54784550D01*
X94299800Y-54767858D01*
X94235121Y-54744716D01*
X94173021Y-54715345D01*
X94114100Y-54680029D01*
X94058924Y-54639107D01*
X94008024Y-54592975D01*
X93961892Y-54542075D01*
X93920970Y-54486899D01*
X93885654Y-54427978D01*
X93856283Y-54365878D01*
X93833141Y-54301199D01*
X93816449Y-54234563D01*
X93806370Y-54166612D01*
X93802999Y-54098000D01*
X93802999Y-53598000D01*
X93806370Y-53529388D01*
X93816449Y-53461437D01*
X93833141Y-53394801D01*
X93856283Y-53330122D01*
X93885654Y-53268022D01*
X93920970Y-53209101D01*
X93961892Y-53153925D01*
X94008024Y-53103025D01*
X94058924Y-53056893D01*
X94114100Y-53015971D01*
X94173021Y-52980655D01*
X94235121Y-52951284D01*
X94299800Y-52928142D01*
X94366436Y-52911450D01*
X94434387Y-52901371D01*
X94502999Y-52898000D01*
X94503001Y-52898000D01*
X94571613Y-52901371D01*
X94571613Y-52901371D01*
G37*
D17*
X94503000Y-53848000D03*
D14*
G36*
X93271613Y-52901371D02*
X93339564Y-52911450D01*
X93406200Y-52928142D01*
X93470879Y-52951284D01*
X93532979Y-52980655D01*
X93591900Y-53015971D01*
X93647076Y-53056893D01*
X93697976Y-53103025D01*
X93744108Y-53153925D01*
X93785030Y-53209101D01*
X93820346Y-53268022D01*
X93849717Y-53330122D01*
X93872859Y-53394801D01*
X93889551Y-53461437D01*
X93899630Y-53529388D01*
X93903001Y-53598000D01*
X93903001Y-54098000D01*
X93899630Y-54166612D01*
X93889551Y-54234563D01*
X93872859Y-54301199D01*
X93849717Y-54365878D01*
X93820346Y-54427978D01*
X93785030Y-54486899D01*
X93744108Y-54542075D01*
X93697976Y-54592975D01*
X93647076Y-54639107D01*
X93591900Y-54680029D01*
X93532979Y-54715345D01*
X93470879Y-54744716D01*
X93406200Y-54767858D01*
X93339564Y-54784550D01*
X93271613Y-54794629D01*
X93203001Y-54798000D01*
X93202999Y-54798000D01*
X93134387Y-54794629D01*
X93066436Y-54784550D01*
X92999800Y-54767858D01*
X92935121Y-54744716D01*
X92873021Y-54715345D01*
X92814100Y-54680029D01*
X92758924Y-54639107D01*
X92708024Y-54592975D01*
X92661892Y-54542075D01*
X92620970Y-54486899D01*
X92585654Y-54427978D01*
X92556283Y-54365878D01*
X92533141Y-54301199D01*
X92516449Y-54234563D01*
X92506370Y-54166612D01*
X92502999Y-54098000D01*
X92502999Y-53598000D01*
X92506370Y-53529388D01*
X92516449Y-53461437D01*
X92533141Y-53394801D01*
X92556283Y-53330122D01*
X92585654Y-53268022D01*
X92620970Y-53209101D01*
X92661892Y-53153925D01*
X92708024Y-53103025D01*
X92758924Y-53056893D01*
X92814100Y-53015971D01*
X92873021Y-52980655D01*
X92935121Y-52951284D01*
X92999800Y-52928142D01*
X93066436Y-52911450D01*
X93134387Y-52901371D01*
X93202999Y-52898000D01*
X93203001Y-52898000D01*
X93271613Y-52901371D01*
X93271613Y-52901371D01*
G37*
D17*
X93203000Y-53848000D03*
D18*
X93453000Y-53848000D03*
X94253000Y-53848000D03*
D19*
X172405000Y-136665500D03*
X170495000Y-136665500D03*
X179639000Y-136665500D03*
X181549000Y-136665500D03*
X163515000Y-136792500D03*
X161605000Y-136792500D03*
X151418001Y-136792500D03*
X153328001Y-136792500D03*
D20*
X169923500Y-127826500D03*
X168023500Y-127826500D03*
X168973500Y-131126500D03*
D21*
X94916500Y-58417500D03*
X94916500Y-56517500D03*
X92916500Y-57467500D03*
D22*
X187960000Y-44990000D03*
X187960000Y-48990000D03*
X102870000Y-48990000D03*
X102870000Y-44990000D03*
D23*
X250928000Y-107950000D03*
X247928000Y-107950000D03*
D24*
X249428000Y-109450000D03*
X249428000Y-106450000D03*
D25*
X193179700Y-45910500D03*
D26*
X192773300Y-48450500D03*
X158750000Y-45237400D03*
D25*
X156210000Y-44831000D03*
D26*
X242646200Y-49657000D03*
X242239800Y-47117000D03*
D25*
X242646200Y-44577000D03*
D26*
X182168800Y-117856000D03*
X182575200Y-115316000D03*
X182168800Y-112776000D03*
D25*
X182575200Y-110236000D03*
D10*
X173939200Y-65466000D03*
X176479200Y-65466000D03*
X173532800Y-68006000D03*
X176072800Y-68006000D03*
X173939200Y-70546000D03*
X176479200Y-70546000D03*
X173532800Y-73086000D03*
X176072800Y-73086000D03*
X173939200Y-75626000D03*
X176479200Y-75626000D03*
X173532800Y-78166000D03*
X176072800Y-78166000D03*
X173939200Y-80706000D03*
X176479200Y-80706000D03*
X173532800Y-83246000D03*
X176072800Y-83246000D03*
X173939200Y-85786000D03*
X176479200Y-85786000D03*
X173532800Y-88326000D03*
X176072800Y-88326000D03*
X173939200Y-90866000D03*
X176479200Y-90866000D03*
X173532800Y-93406000D03*
X176276000Y-93406000D03*
D27*
X231196000Y-64436000D03*
X231196000Y-94436000D03*
D16*
X176526000Y-100241000D03*
X176526000Y-59441000D03*
X247526000Y-59441000D03*
X247526000Y-100241000D03*
D25*
X156477200Y-115646000D03*
D26*
X153937200Y-115646000D03*
X156070800Y-118186000D03*
X153713680Y-118186000D03*
X156477200Y-120726000D03*
X153937200Y-120726000D03*
X156070800Y-123266000D03*
X153713680Y-123266000D03*
X156477200Y-125806000D03*
X153937200Y-125806000D03*
X156070800Y-128346000D03*
X153713680Y-128346000D03*
X156477200Y-130886000D03*
X153937200Y-130886000D03*
D28*
X91694000Y-134416000D03*
X91694000Y-112906000D03*
D29*
X81788000Y-134112000D03*
D30*
X84188000Y-134112000D03*
X83485056Y-135809056D03*
X81788000Y-136512000D03*
X80090944Y-135809056D03*
X79388000Y-134112000D03*
X80090944Y-132414944D03*
X81788000Y-131712000D03*
X83485056Y-132414944D03*
D11*
X167767000Y-56609000D03*
X167767000Y-62009000D03*
D31*
X84682500Y-85217000D03*
X86767500Y-85217000D03*
D12*
X104394000Y-82777500D03*
X104394000Y-84862500D03*
D31*
X180112500Y-110109000D03*
X178027500Y-110109000D03*
D12*
X111061500Y-82904500D03*
X111061500Y-84989500D03*
X122428000Y-70511500D03*
X122428000Y-68426500D03*
X165735000Y-67209500D03*
X165735000Y-65124500D03*
X162433000Y-128878500D03*
X162433000Y-130963500D03*
X90170000Y-83539500D03*
X90170000Y-85624500D03*
X92710000Y-85624500D03*
X92710000Y-83539500D03*
D32*
X160147000Y-127693500D03*
X160147000Y-130878500D03*
X124714000Y-70553500D03*
X124714000Y-67368500D03*
D18*
X104756000Y-108204000D03*
X105556000Y-108204000D03*
D14*
G36*
X105874613Y-107257371D02*
X105942564Y-107267450D01*
X106009200Y-107284142D01*
X106073879Y-107307284D01*
X106135979Y-107336655D01*
X106194900Y-107371971D01*
X106250076Y-107412893D01*
X106300976Y-107459025D01*
X106347108Y-107509925D01*
X106388030Y-107565101D01*
X106423346Y-107624022D01*
X106452717Y-107686122D01*
X106475859Y-107750801D01*
X106492551Y-107817437D01*
X106502630Y-107885388D01*
X106506001Y-107954000D01*
X106506001Y-108454000D01*
X106502630Y-108522612D01*
X106492551Y-108590563D01*
X106475859Y-108657199D01*
X106452717Y-108721878D01*
X106423346Y-108783978D01*
X106388030Y-108842899D01*
X106347108Y-108898075D01*
X106300976Y-108948975D01*
X106250076Y-108995107D01*
X106194900Y-109036029D01*
X106135979Y-109071345D01*
X106073879Y-109100716D01*
X106009200Y-109123858D01*
X105942564Y-109140550D01*
X105874613Y-109150629D01*
X105806001Y-109154000D01*
X105805999Y-109154000D01*
X105737387Y-109150629D01*
X105669436Y-109140550D01*
X105602800Y-109123858D01*
X105538121Y-109100716D01*
X105476021Y-109071345D01*
X105417100Y-109036029D01*
X105361924Y-108995107D01*
X105311024Y-108948975D01*
X105264892Y-108898075D01*
X105223970Y-108842899D01*
X105188654Y-108783978D01*
X105159283Y-108721878D01*
X105136141Y-108657199D01*
X105119449Y-108590563D01*
X105109370Y-108522612D01*
X105105999Y-108454000D01*
X105105999Y-107954000D01*
X105109370Y-107885388D01*
X105119449Y-107817437D01*
X105136141Y-107750801D01*
X105159283Y-107686122D01*
X105188654Y-107624022D01*
X105223970Y-107565101D01*
X105264892Y-107509925D01*
X105311024Y-107459025D01*
X105361924Y-107412893D01*
X105417100Y-107371971D01*
X105476021Y-107336655D01*
X105538121Y-107307284D01*
X105602800Y-107284142D01*
X105669436Y-107267450D01*
X105737387Y-107257371D01*
X105805999Y-107254000D01*
X105806001Y-107254000D01*
X105874613Y-107257371D01*
X105874613Y-107257371D01*
G37*
D17*
X105806000Y-108204000D03*
D14*
G36*
X104574613Y-107257371D02*
X104642564Y-107267450D01*
X104709200Y-107284142D01*
X104773879Y-107307284D01*
X104835979Y-107336655D01*
X104894900Y-107371971D01*
X104950076Y-107412893D01*
X105000976Y-107459025D01*
X105047108Y-107509925D01*
X105088030Y-107565101D01*
X105123346Y-107624022D01*
X105152717Y-107686122D01*
X105175859Y-107750801D01*
X105192551Y-107817437D01*
X105202630Y-107885388D01*
X105206001Y-107954000D01*
X105206001Y-108454000D01*
X105202630Y-108522612D01*
X105192551Y-108590563D01*
X105175859Y-108657199D01*
X105152717Y-108721878D01*
X105123346Y-108783978D01*
X105088030Y-108842899D01*
X105047108Y-108898075D01*
X105000976Y-108948975D01*
X104950076Y-108995107D01*
X104894900Y-109036029D01*
X104835979Y-109071345D01*
X104773879Y-109100716D01*
X104709200Y-109123858D01*
X104642564Y-109140550D01*
X104574613Y-109150629D01*
X104506001Y-109154000D01*
X104505999Y-109154000D01*
X104437387Y-109150629D01*
X104369436Y-109140550D01*
X104302800Y-109123858D01*
X104238121Y-109100716D01*
X104176021Y-109071345D01*
X104117100Y-109036029D01*
X104061924Y-108995107D01*
X104011024Y-108948975D01*
X103964892Y-108898075D01*
X103923970Y-108842899D01*
X103888654Y-108783978D01*
X103859283Y-108721878D01*
X103836141Y-108657199D01*
X103819449Y-108590563D01*
X103809370Y-108522612D01*
X103805999Y-108454000D01*
X103805999Y-107954000D01*
X103809370Y-107885388D01*
X103819449Y-107817437D01*
X103836141Y-107750801D01*
X103859283Y-107686122D01*
X103888654Y-107624022D01*
X103923970Y-107565101D01*
X103964892Y-107509925D01*
X104011024Y-107459025D01*
X104061924Y-107412893D01*
X104117100Y-107371971D01*
X104176021Y-107336655D01*
X104238121Y-107307284D01*
X104302800Y-107284142D01*
X104369436Y-107267450D01*
X104437387Y-107257371D01*
X104505999Y-107254000D01*
X104506001Y-107254000D01*
X104574613Y-107257371D01*
X104574613Y-107257371D01*
G37*
D17*
X104506000Y-108204000D03*
D30*
X250617056Y-31322944D03*
X248920000Y-30620000D03*
X247222944Y-31322944D03*
X246520000Y-33020000D03*
X247222944Y-34717056D03*
X248920000Y-35420000D03*
X250617056Y-34717056D03*
X251320000Y-33020000D03*
D29*
X248920000Y-33020000D03*
X81280000Y-33020000D03*
D30*
X83680000Y-33020000D03*
X82977056Y-34717056D03*
X81280000Y-35420000D03*
X79582944Y-34717056D03*
X78880000Y-33020000D03*
X79582944Y-31322944D03*
X81280000Y-30620000D03*
X82977056Y-31322944D03*
X250617056Y-132922944D03*
X248920000Y-132220000D03*
X247222944Y-132922944D03*
X246520000Y-134620000D03*
X247222944Y-136317056D03*
X248920000Y-137020000D03*
X250617056Y-136317056D03*
X251320000Y-134620000D03*
D29*
X248920000Y-134620000D03*
D33*
X106596000Y-85156000D03*
X106596000Y-86106000D03*
X106596000Y-87056000D03*
X108796000Y-87056000D03*
X108796000Y-85156000D03*
D19*
X158049000Y-136779000D03*
X159959000Y-136779000D03*
X149672000Y-136779000D03*
X147762000Y-136779000D03*
X176017000Y-136652000D03*
X177927000Y-136652000D03*
X131447500Y-106616500D03*
X129537500Y-106616500D03*
X132585500Y-102679500D03*
X134495500Y-102679500D03*
X168785500Y-136715500D03*
X166875500Y-136715500D03*
X178242000Y-112776000D03*
X180152000Y-112776000D03*
X152905500Y-70929500D03*
X154815500Y-70929500D03*
X159387500Y-70993000D03*
X157477500Y-70993000D03*
X130177500Y-70548500D03*
X128267500Y-70548500D03*
X127632500Y-102616000D03*
X129542500Y-102616000D03*
D34*
X183900000Y-44450000D03*
X177800000Y-44450000D03*
X91694000Y-44958000D03*
X97794000Y-44958000D03*
D35*
X86360000Y-68834000D03*
D36*
X86360000Y-57404000D03*
X86360000Y-80264000D03*
D37*
X107950000Y-66040000D03*
X107950000Y-44958000D03*
X151130000Y-44958000D03*
X151130000Y-66040000D03*
D10*
X208280000Y-110540800D03*
X205740000Y-110134400D03*
X203200000Y-110540800D03*
X200660000Y-110134400D03*
X198120000Y-110540800D03*
X195580000Y-110134400D03*
X193040000Y-110540800D03*
X190500000Y-110134400D03*
X208280000Y-133217920D03*
X205740000Y-132994400D03*
X203200000Y-133400800D03*
X200660000Y-132994400D03*
X198120000Y-133400800D03*
X195580000Y-132994400D03*
X193040000Y-133400800D03*
X190500000Y-132994400D03*
D27*
X205740000Y-106527600D03*
X205740000Y-137007600D03*
X193040000Y-137007600D03*
X193040000Y-106527600D03*
D25*
X119380000Y-70434200D03*
D26*
X116840000Y-70027800D03*
X206641700Y-49657000D03*
X206235300Y-47117000D03*
D25*
X206641700Y-44577000D03*
X235394500Y-44577000D03*
D26*
X234988100Y-47117000D03*
X235394500Y-49657000D03*
X199428100Y-49657000D03*
X199021700Y-47117000D03*
D25*
X199428100Y-44577000D03*
X203034900Y-44577000D03*
D26*
X202628500Y-47117000D03*
X203034900Y-49657000D03*
X221018100Y-49657000D03*
X220611700Y-47117000D03*
D25*
X221018100Y-44577000D03*
X231787700Y-44577000D03*
D26*
X231381300Y-47117000D03*
X231787700Y-49657000D03*
X99263200Y-79375000D03*
X98856800Y-76835000D03*
D25*
X99263200Y-74295000D03*
X210248500Y-44577000D03*
D26*
X209842100Y-47117000D03*
X210248500Y-49657000D03*
X224624900Y-49657000D03*
X224218500Y-47117000D03*
D25*
X224624900Y-44577000D03*
X89966800Y-39433500D03*
D26*
X90373200Y-36893500D03*
X89966800Y-34353500D03*
X213804500Y-49657000D03*
X213398100Y-47117000D03*
D25*
X213804500Y-44577000D03*
X217411300Y-44577000D03*
D26*
X217004900Y-47117000D03*
X217411300Y-49657000D03*
X239001300Y-49657000D03*
X238594900Y-47117000D03*
D25*
X239001300Y-44577000D03*
X228231700Y-44577000D03*
D26*
X227825300Y-47117000D03*
X228231700Y-49657000D03*
X102870000Y-65963800D03*
X100330000Y-66370200D03*
D25*
X97790000Y-65963800D03*
X164033200Y-106680000D03*
D26*
X163626800Y-109220000D03*
X164033200Y-111760000D03*
X163626800Y-114300000D03*
D28*
X91440000Y-96520000D03*
D38*
X96940000Y-104420000D03*
X94400000Y-104420000D03*
X91860000Y-104420000D03*
X89320000Y-104420000D03*
X86780000Y-104420000D03*
X84240000Y-104420000D03*
X84240000Y-88620000D03*
X86780000Y-88620000D03*
X89320000Y-88620000D03*
X91860000Y-88620000D03*
X94400000Y-88620000D03*
X96940000Y-88620000D03*
D39*
X170180000Y-49850000D03*
X170180000Y-44450000D03*
X85090000Y-44958000D03*
X85090000Y-50358000D03*
M02*
